<svg width="15" height="14" viewBox="0 0 15 14" fill="none" xmlns="http://www.w3.org/2000/svg">
<path d="M7.37447 9.9599C7.38938 9.9789 7.40842 9.99426 7.43017 10.0048C7.45191 10.0154 7.47579 10.0209 7.49998 10.0209C7.52416 10.0209 7.54804 10.0154 7.56978 10.0048C7.59153 9.99426 7.61058 9.9789 7.62548 9.9599L9.85673 7.14501C9.93841 7.04171 9.8647 6.88875 9.73123 6.88875H8.25502V0.166398C8.25502 0.0789912 8.1833 0.00747681 8.09564 0.00747681H6.90033C6.81267 0.00747681 6.74095 0.0789912 6.74095 0.166398V6.88677H5.26873C5.13525 6.88677 5.06154 7.03973 5.14322 7.14303L7.37447 9.9599ZM14.7914 9.26462H13.5961C13.5084 9.26462 13.4367 9.33614 13.4367 9.42354V12.4828H1.56326V9.42354C1.56326 9.33614 1.49154 9.26462 1.40388 9.26462H0.208569C0.120913 9.26462 0.0491943 9.33614 0.0491943 9.42354V13.3568C0.0491943 13.7084 0.334077 13.9925 0.686694 13.9925H14.3133C14.6659 13.9925 14.9508 13.7084 14.9508 13.3568V9.42354C14.9508 9.33614 14.879 9.26462 14.7914 9.26462Z" fill="#737373"/>
</svg>
