<svg xmlns="http://www.w3.org/2000/svg" width="40" height="40" fill="none" viewBox="0 0 40 40"><rect width="40" height="40" fill="#fff" rx="20"/><path fill="#BDBDBD" stroke="#E74040" stroke-width=".625" d="M20.0009 15.9532L18.6365 14.5566L18.6359 14.556C18.288 14.2018 17.873 13.9204 17.4152 13.7283C16.9573 13.5362 16.4658 13.4372 15.9692 13.4372C15.4727 13.4372 14.9811 13.5362 14.5233 13.7283C14.0654 13.9203 13.6505 14.2017 13.3026 14.5559C12.5886 15.2809 12.1885 16.2575 12.1885 17.275C12.1885 18.2926 12.5887 19.2693 13.3028 19.9943L13.3031 19.9946L19.7781 26.5508L20.0005 26.776L20.2228 26.5508L26.6978 19.9946L26.6981 19.9943C27.4122 19.2693 27.8125 18.2926 27.8125 17.275C27.8125 16.2575 27.4123 15.2809 26.6983 14.5559C26.3506 14.2015 25.9357 13.92 25.4778 13.7279C25.02 13.5359 24.5286 13.4372 24.0322 13.4375C24.0319 13.4375 24.0317 13.4375 24.0315 13.4375L24.0317 13.75C23.5746 13.7493 23.122 13.8409 22.701 14.0192C22.2801 14.1974 21.8994 14.4587 21.5817 14.7875L20.0009 15.9532ZM20.0009 15.9532L21.357 14.5704C21.3573 14.5701 21.3576 14.5698 21.3578 14.5695L20.0009 15.9532ZM20.9162 14.12L20.9173 14.1188C21.3233 13.7047 21.8079 13.3759 22.3427 13.1516C22.8774 12.9273 23.4516 12.812 24.0315 12.8125L24.0317 12.5L24.0316 12.8125C24.6115 12.8127 25.1856 12.9283 25.7204 13.1526C26.2551 13.3769 26.7398 13.7054 27.1463 14.119C27.9752 14.9628 28.4397 16.0984 28.4397 17.2813C28.4397 18.464 27.9753 19.5994 27.1465 20.4433C27.1465 20.4433 27.1464 20.4434 27.1463 20.4435L20.0005 27.6802L12.8547 20.4435C12.8546 20.4434 12.8545 20.4433 12.8544 20.4432C12.0256 19.5994 11.5613 18.464 11.5613 17.2813C11.5613 16.0984 12.0257 14.9628 12.8547 14.119C13.2612 13.7057 13.7459 13.3774 14.2806 13.1533C14.8154 12.9292 15.3894 12.8138 15.9692 12.8138C16.549 12.8138 17.123 12.9292 17.6578 13.1533C18.1926 13.3774 18.6773 13.7058 19.0839 14.1191L19.0848 14.12L19.7785 14.82L20.0005 15.0439L20.2224 14.82L20.9162 14.12Z"/></svg>