<svg width="96" height="96" viewBox="0 0 96 96" fill="none" xmlns="http://www.w3.org/2000/svg">
<rect width="96" height="96" rx="48" fill="#23A6F0"/>
<g clip-path="url(#clip0_2:254)">
<path fill-rule="evenodd" clip-rule="evenodd" d="M69.4166 66.6667C69.4166 66.6667 72.5 66.6667 72.5 63.5556C72.5 60.4445 69.4166 51.1111 57.0833 51.1111C44.75 51.1111 41.6666 60.4445 41.6666 63.5556C41.6666 66.6667 44.75 66.6667 44.75 66.6667H69.4166ZM44.8178 63.5556H69.3488C69.3632 63.5539 69.3776 63.5518 69.392 63.5493L69.4166 63.5431C69.4105 62.7218 68.9017 60.3387 67.0733 58.192C65.3713 56.1791 62.3805 54.2222 57.0833 54.2222C51.7892 54.2222 48.7984 56.1822 47.0933 58.192C45.2649 60.3387 44.753 62.7249 44.75 63.5431C44.7725 63.5475 44.7951 63.5517 44.8178 63.5556ZM57.0833 44.8889C58.7188 44.8889 60.2873 44.2333 61.4438 43.0665C62.6003 41.8996 63.25 40.3169 63.25 38.6667C63.25 37.0164 62.6003 35.4338 61.4438 34.2669C60.2873 33.1 58.7188 32.4445 57.0833 32.4445C55.4478 32.4445 53.8793 33.1 52.7228 34.2669C51.5663 35.4338 50.9166 37.0164 50.9166 38.6667C50.9166 40.3169 51.5663 41.8996 52.7228 43.0665C53.8793 44.2333 55.4478 44.8889 57.0833 44.8889ZM66.3333 38.6667C66.3333 39.8923 66.094 41.106 65.6292 42.2384C65.1643 43.3708 64.483 44.3997 63.624 45.2663C62.7651 46.133 61.7454 46.8205 60.6231 47.2896C59.5009 47.7586 58.298 48 57.0833 48C55.8686 48 54.6657 47.7586 53.5435 47.2896C52.4212 46.8205 51.4015 46.133 50.5426 45.2663C49.6836 44.3997 49.0023 43.3708 48.5374 42.2384C48.0725 41.106 47.8333 39.8923 47.8333 38.6667C47.8333 36.1913 48.8078 33.8174 50.5426 32.067C52.2773 30.3167 54.63 29.3333 57.0833 29.3333C59.5365 29.3333 61.8893 30.3167 63.624 32.067C65.3587 33.8174 66.3333 36.1913 66.3333 38.6667ZM44.5526 51.9822C43.3192 51.5903 42.0478 51.3327 40.7601 51.2138C40.0366 51.1444 39.3101 51.1101 38.5833 51.1111C26.25 51.1111 23.1666 60.4445 23.1666 63.5556C23.1666 65.6307 24.1934 66.6667 26.25 66.6667H39.2493C38.7922 65.6954 38.5642 64.6306 38.5833 63.5556C38.5833 60.4133 39.7457 57.2027 41.9441 54.5209C42.6934 53.6062 43.566 52.7507 44.5526 51.9822ZM38.3366 54.2222C33.1936 54.2845 30.2737 56.2133 28.5933 58.192C26.7525 60.3511 26.25 62.7436 26.25 63.5556H35.5C35.5 60.3045 36.4959 57.0658 38.3366 54.2222ZM27.7916 40.2222C27.7916 37.7469 28.7662 35.3729 30.5009 33.6226C32.2356 31.8722 34.5884 30.8889 37.0416 30.8889C39.4949 30.8889 41.8477 31.8722 43.5824 33.6226C45.3171 35.3729 46.2916 37.7469 46.2916 40.2222C46.2916 42.6976 45.3171 45.0716 43.5824 46.8219C41.8477 48.5722 39.4949 49.5556 37.0416 49.5556C34.5884 49.5556 32.2356 48.5722 30.5009 46.8219C28.7662 45.0716 27.7916 42.6976 27.7916 40.2222ZM37.0416 34C35.4061 34 33.8376 34.6556 32.6811 35.8225C31.5247 36.9893 30.875 38.572 30.875 40.2222C30.875 41.8725 31.5247 43.4551 32.6811 44.622C33.8376 45.7889 35.4061 46.4445 37.0416 46.4445C38.6771 46.4445 40.2456 45.7889 41.4021 44.622C42.5586 43.4551 43.2083 41.8725 43.2083 40.2222C43.2083 38.572 42.5586 36.9893 41.4021 35.8225C40.2456 34.6556 38.6771 34 37.0416 34Z" fill="white"/>
</g>
<defs>
<clipPath id="clip0_2:254">
<rect width="48" height="39.5295" fill="white" transform="translate(23.5 28)"/>
</clipPath>
</defs>
</svg>
